<?xml version="1.0" standalone="no"?>
<!DOCTYPE svg PUBLIC "-//W3C//DTD SVG 1.1//EN" "http://www.w3.org/Graphics/SVG/1.1/DTD/svg11.dtd">
<svg xmlns="http://www.w3.org/2000/svg" fill-rule="evenodd" width="3.387mm" height="4.515mm" viewBox="0 0 3.387 4.515">
	<g id="Curve">
		<path style="fill:rgb(204,204,204);" d="m0.000,0.564l0.564,-0.564l1.411,-0.000l0.000,1.129l0.282,0.282l1.129,-0.000l0.000,2.540l-0.564,0.564l-2.258,-0.000l-0.564,-0.564zm3.387,0.564l-1.129,-0.000l0.000,-1.129zm-1.699,0.973c-0.192,-0.080 -0.338,-0.115 -0.483,-0.115c-0.448,-0.000 -0.771,0.313 -0.771,0.742c0.000,0.295 0.231,0.701 0.759,0.701c0.221,-0.000 0.371,-0.052 0.509,-0.124l0.000,-0.221c-0.159,0.103 -0.332,0.159 -0.491,0.159c-0.338,-0.000 -0.569,-0.219 -0.569,-0.534c0.000,-0.309 0.239,-0.538 0.561,-0.538c0.163,-0.000 0.311,0.045 0.485,0.146zm1.353,-0.097l-0.200,-0.000l-0.421,0.988l-0.423,-0.988l-0.202,-0.000l0.608,1.419l0.041,-0.000z"/>
	</g>
</svg>